<?xml version="1.0" standalone="no"?>
<!DOCTYPE svg PUBLIC "-//W3C//DTD SVG 20010904//EN"
 "http://www.w3.org/TR/2001/REC-SVG-20010904/DTD/svg10.dtd">
<svg version="1.0" xmlns="http://www.w3.org/2000/svg"
 width="32.000000pt" height="32.000000pt" viewBox="0 0 32.000000 32.000000"
 preserveAspectRatio="xMidYMid meet">

<g transform="translate(0.000000,32.000000) scale(0.100000,-0.100000)"
fill="#fff" stroke="none">
<path d="M105 309 c-5 -7 4 -8 27 -4 68 13 168 -35 168 -80 0 -13 -20 -15
-140 -15 -92 0 -140 4 -140 11 0 21 21 49 48 63 16 9 21 15 11 16 -8 0 -28
-13 -43 -29 -31 -33 -42 -91 -23 -121 8 -14 8 -22 -2 -34 -11 -13 -11 -22 3
-51 26 -55 49 -65 146 -65 96 0 120 10 145 64 14 28 14 38 4 54 -10 15 -10 24
-2 34 7 7 10 30 9 51 -4 44 -35 83 -83 103 -38 17 -119 18 -128 3z m135 -169
l-55 -7 53 -1 c53 -2 74 -21 25 -23 -105 -6 -163 -3 -163 8 0 7 18 14 43 16
l42 4 -47 1 -48 2 0 -40 c0 -22 -4 -40 -10 -40 -5 0 -10 16 -10 35 0 28 -5 38
-22 45 -15 6 23 8 112 8 98 -1 120 -3 80 -8z m-180 -19 c0 -5 -7 -11 -15 -15
-9 -3 -15 0 -15 9 0 8 7 15 15 15 8 0 15 -4 15 -9z m8 -73 c8 -8 15 -8 26 1 9
8 45 11 105 9 89 -3 92 -4 78 -23 -12 -15 -30 -20 -86 -23 -90 -5 -138 4 -151
28 -8 15 -8 20 3 20 7 0 18 -5 25 -12z"/>
</g>
</svg>
